<svg width="28" height="28" viewBox="0 0 28 28" fill="none" xmlns="http://www.w3.org/2000/svg">
<g clip-path="url(#clip0_13_103)">
<path d="M14 28C21.732 28 28 21.732 28 14C28 6.26801 21.732 0 14 0C6.26801 0 0 6.26801 0 14C0 21.732 6.26801 28 14 28Z" fill="#1884B2"/>
<path fill-rule="evenodd" clip-rule="evenodd" d="M9.62847 20.8278L4.50821 15.3477C3.80722 14.5974 3.84746 13.4104 4.59773 12.7094C5.34799 12.0084 6.53502 12.0487 7.23601 12.7989L11.1856 17.026L17.4372 11.1849C17.4934 11.1323 17.5521 11.0842 17.6129 11.0399L20.5528 8.29311C21.303 7.59211 22.4902 7.63246 23.191 8.38273C23.892 9.13288 23.8517 10.32 23.1015 11.021L14.1224 19.4105L14.1128 19.4003L11.0067 22.3024L9.62847 20.8278Z" fill="white"/>
</g>
<defs>
<clipPath id="clip0_13_103">
<rect width="28" height="28" fill="white"/>
</clipPath>
</defs>
</svg>
