<svg width="28" height="28" viewBox="0 0 28 28" fill="none" xmlns="http://www.w3.org/2000/svg">
<g clip-path="url(#clip0_35_603)">
<path d="M14 28C21.732 28 28 21.732 28 14C28 6.26801 21.732 0 14 0C6.26801 0 0 6.26801 0 14C0 21.732 6.26801 28 14 28Z" fill="#1884B2"/>
<path d="M18.4485 17.792H17.1845V20H14.1445V17.792H9.5845V15.52L14.3365 8.576H17.1845V15.488H18.4485V17.792ZM14.1445 14.16C14.1445 14.0427 14.1445 13.8933 14.1445 13.712C14.1552 13.52 14.1605 13.3333 14.1605 13.152C14.1712 12.9707 14.1818 12.816 14.1925 12.688C14.2032 12.56 14.2085 12.4907 14.2085 12.48H14.1285C14.0218 12.7147 13.9258 12.9067 13.8405 13.056C13.7658 13.2053 13.6592 13.3867 13.5205 13.6L12.2565 15.488H14.1445V14.16Z" fill="white"/>
</g>
<defs>
<clipPath id="clip0_35_603">
<rect width="28" height="28" fill="white"/>
</clipPath>
</defs>
</svg>
