<svg width="46" height="46" viewBox="0 0 46 46" fill="none" xmlns="http://www.w3.org/2000/svg">
<path d="M45.6052 10.4959L35.5008 0.391527C34.9989 -0.130554 34.0967 -0.130464 33.5949 0.391527L23.4906 10.4959C23.1052 10.8813 22.9899 11.461 23.1984 11.9645C23.407 12.4681 23.8985 12.7965 24.4435 12.7965H28.8698V44.649C28.8698 45.3933 29.4732 45.9967 30.2175 45.9967H38.8784C39.6226 45.9967 40.226 45.3933 40.226 44.649V12.7965H44.6524C45.1974 12.7965 45.6889 12.4681 45.8974 11.9645C46.1059 11.461 45.9907 10.8814 45.6052 10.4959Z" fill="#16324C"/>
<path d="M24.4435 18.762H15.7826C15.0383 18.762 14.4349 19.3654 14.4349 20.1096V44.6489C14.4349 45.3931 15.0383 45.9965 15.7826 45.9965H24.4435C25.1878 45.9965 25.7911 45.3931 25.7911 44.6489V20.1096C25.7911 19.3654 25.1878 18.762 24.4435 18.762Z" fill="#16324C"/>
<path d="M10.0086 30.3101H1.34766C0.60339 30.3101 0 30.9134 0 31.6577V44.6491C0 45.3934 0.60339 45.9967 1.34766 45.9967H10.0086C10.7529 45.9967 11.3562 45.3934 11.3562 44.6491V31.6577C11.3562 30.9134 10.7529 30.3101 10.0086 30.3101Z" fill="#16324C"/>
</svg>
