<svg width="100" height="54" viewBox="0 0 100 54" fill="none" xmlns="http://www.w3.org/2000/svg">
<path d="M99.4933 39.5706C94.3881 35.4503 90.1688 27.0196 90.1267 26.9343C89.8987 26.4732 89.4295 26.1816 88.919 26.1816H85.0958C82.2401 23.6218 78.1485 18.2309 74.1874 13.0113C70.8437 8.60598 67.6774 4.43463 65.3634 2.11659C65.2291 1.58544 64.7957 1.20193 64.2775 1.11563C63.341 0.340119 62.6013 0 61.8919 0C59.586 0 58.0593 1.75198 57.483 2.84943C55.8772 5.24335 52.3646 8.32671 50.8989 9.56525L49.5233 8.87119C48.8542 8.53301 48.0443 8.80574 47.7102 9.48113C47.0401 10.8343 41.3044 18.0105 37.1583 23.0691C33.9338 18.4755 30.655 17.4546 28.3782 17.4546C25.7036 17.4546 22.9165 22.4422 21.8025 24.6761C13.3886 37.3778 0.667777 47.0852 0.540209 47.1816C0.145012 47.4808 -0.0565514 47.9734 0.0138393 48.4667C0.0832691 48.96 0.414562 49.3739 0.876306 49.5501C2.63583 50.2148 4.36726 50.553 6.02084 50.553C10.929 50.553 13.901 47.659 14.985 46.3637H18.0274C23.6589 52.7993 31.1083 53.9404 31.4302 53.9857C31.4941 53.9961 31.5578 54 31.6217 54C34.2165 54 35.6777 53.3617 36.3881 52.9091H43.5134C43.948 52.9091 44.3562 52.6979 44.6096 52.3428C44.864 51.9876 44.9335 51.5302 44.7953 51.1137C43.5276 47.2747 39.0821 46.9404 38.2394 46.9111C35.5535 46.4224 33.4655 44.3448 32.0212 42.3165C34.1317 43.076 35.8286 43.091 35.9458 43.091C36.4919 43.091 36.9856 42.7586 37.1938 42.2491C37.4031 41.7405 37.2878 41.1533 36.901 40.7633C29.2001 32.9924 27.7221 26.0882 27.5681 25.2548C27.5803 24.6344 27.6901 24.1271 27.8449 23.7169C33.8819 39.2566 57.0539 50.1266 58.0843 50.6039C58.2616 50.6844 58.454 50.7271 58.6484 50.7271H74.8647C75.5469 50.7271 76.123 50.2138 76.2057 49.53C76.2903 48.8463 75.8547 48.2071 75.1921 48.0403C71.902 47.2098 65.8912 42.4542 63.852 40.691C63.317 40.228 62.5165 40.2593 62.0173 40.763C59.962 42.8369 58.6145 43.2726 57.8479 43.2726C56.7077 43.2726 56.0405 42.2309 55.7616 41.659C56.7433 38.301 56.7565 34.269 56.7565 34.0908C56.7565 33.4584 56.3257 32.909 55.7157 32.7631C55.6896 32.7575 55.6622 32.7517 55.635 32.7471C57.39 30.5483 58.8089 28.4063 59.7333 26.9215C63.2824 31.3883 70.9562 33.1563 71.3278 33.2404C71.9659 33.3776 72.6097 33.0492 72.8649 32.4441C73.1193 31.8409 72.9127 31.1391 72.3712 30.7745C67.6706 27.6126 63.7131 14.3419 62.3269 8.47071C63.0722 7.84938 63.6379 7.17715 64.0668 6.51703C68.0082 15.2159 78.591 28.5338 83.4372 34.4154C84.1421 35.4164 84.9358 36.3652 85.8012 37.2365C86.064 37.5027 86.4102 37.636 86.7566 37.636H86.7773C87.5251 37.636 88.1286 37.0251 88.1286 36.2724C88.1286 35.8557 87.9456 35.4845 87.6537 35.2336C87.3779 34.9078 86.6552 34.0547 85.6332 32.8142C89.6131 36.4147 96.9227 41.1446 97.923 41.7868C98.5284 42.1742 99.3306 42.0197 99.7474 41.4287C100.166 40.8396 100.053 40.0234 99.4933 39.5706Z" fill="#1884B2"/>
</svg>
