<svg width="28" height="28" viewBox="0 0 28 28" fill="none" xmlns="http://www.w3.org/2000/svg">
<g clip-path="url(#clip0_24_284)">
<path d="M23.8689 4.12691C21.1593 1.41781 17.5797 0 14 0C10.4203 0 6.84046 1.41781 4.13113 4.12691C-1.37704 9.63531 -1.37704 18.3565 4.13113 23.8646C6.85712 26.5904 10.4203 28.0082 14 28.0082C17.5797 28.0082 21.1429 26.5904 23.8689 23.8646C29.377 18.3565 29.377 9.63531 23.8689 4.12691ZM6.44642 6.44241C8.53199 4.37329 11.2578 3.25123 14 3.25123C16.1512 3.25123 18.3186 3.9628 20.1907 5.293L14 11.4835L5.297 20.1865C2.2148 15.8313 2.66653 10.239 6.44642 6.44241ZM21.5534 21.5494C19.468 23.6185 16.7422 24.7405 14 24.7405C11.8488 24.7405 9.68141 24.029 7.80931 22.6988L22.703 7.8053C25.785 12.1602 25.3335 17.7526 21.5534 21.5494Z" fill="white"/>
<path d="M23.8689 23.8646C21.1429 26.5904 17.5797 28.0082 14 28.0082V24.7405C16.7422 24.7405 19.4682 23.6185 21.5534 21.5494C25.3335 17.7526 25.785 12.1602 22.703 7.8053L14 16.5083V11.4835L20.1905 5.293C18.3186 3.9628 16.151 3.25123 14 3.25123V0C17.5797 0 21.1593 1.41781 23.8689 4.12691C29.377 9.63531 29.377 18.3565 23.8689 23.8646Z" fill="white"/>
</g>
<defs>
<clipPath id="clip0_24_284">
<rect width="28" height="28" fill="white"/>
</clipPath>
</defs>
</svg>
