<svg width="28" height="28" viewBox="0 0 28 28" fill="none" xmlns="http://www.w3.org/2000/svg">
<g clip-path="url(#clip0_35_576)">
<path d="M14 28C21.732 28 28 21.732 28 14C28 6.26801 21.732 0 14 0C6.26801 0 0 6.26801 0 14C0 21.732 6.26801 28 14 28Z" fill="#1884B2"/>
<path d="M16.6725 20H13.5365V14.352C13.5365 14.2453 13.5365 14.0533 13.5365 13.776C13.5365 13.4987 13.5418 13.1893 13.5525 12.848C13.5632 12.5067 13.5738 12.2027 13.5845 11.936C13.4458 12.096 13.3178 12.2347 13.2005 12.352C13.0938 12.4693 12.9818 12.576 12.8645 12.672L11.5685 13.744L9.9685 11.776L13.8885 8.576H16.6725V20Z" fill="white"/>
</g>
<defs>
<clipPath id="clip0_35_576">
<rect width="28" height="28" fill="white"/>
</clipPath>
</defs>
</svg>
