<svg width="46" height="39" viewBox="0 0 46 39" fill="none" xmlns="http://www.w3.org/2000/svg">
<path d="M45.8145 14.5972L37.6387 0.665782C37.2638 0.0270795 36.4438 -0.189535 35.8025 0.180803L30.9027 3.00973L26.4892 1.38633C26.3268 1.32659 26.1623 1.27645 25.9965 1.23432C24.7539 0.918424 23.4367 1.09569 22.3128 1.74463L15.0172 5.9568C13.4057 6.88714 12.8536 8.94772 13.784 10.5592C14.7143 12.1706 16.7749 12.7227 18.3863 11.7924L26.392 7.17015C27.226 6.68867 28.2534 6.68867 29.0873 7.17015C29.0873 7.17015 45.2167 16.4857 45.2685 16.5176L45.5088 16.3198C46.0202 15.8988 46.1498 15.1685 45.8145 14.5972Z" fill="#16324C"/>
<path d="M43.765 18.7564L27.7397 9.50428L19.734 14.1264C18.7996 14.6659 17.7625 14.9415 16.7116 14.9415C16.1848 14.9415 15.6546 14.8722 15.1322 14.7323C13.5675 14.313 12.2596 13.3095 11.4498 11.9066C10.6398 10.5039 10.4247 8.86953 10.844 7.30481C11.1901 6.01303 11.9353 4.89725 12.9738 4.09126L9.66951 2.1835C9.01068 1.8031 8.16768 2.04317 7.80803 2.71358L0.160261 16.9721C-0.183751 17.6134 0.0436437 18.4123 0.674078 18.7761L1.37459 19.1805L2.6041 17.0508C3.6241 15.2841 5.52582 14.1865 7.56707 14.1865C8.56865 14.1865 9.55801 14.452 10.4281 14.9544C10.9286 15.2434 11.375 15.5995 11.7584 16.0104C12.378 15.7841 13.0399 15.6626 13.7175 15.6626C14.7191 15.6626 15.7084 15.9281 16.5785 16.4305C17.9033 17.1953 18.8511 18.4305 19.247 19.9083C19.2906 20.0708 19.3256 20.2341 19.3547 20.3978C19.9058 20.5251 20.4381 20.7337 20.932 21.0189C22.2569 21.7838 23.2047 23.0189 23.6006 24.4967C23.6442 24.6592 23.6791 24.8226 23.7082 24.9862C24.2593 25.1136 24.7916 25.3221 25.2854 25.6073C28.0205 27.1864 28.9609 30.6963 27.382 33.4312L25.7031 36.3391L29.3018 38.4169C30.7521 39.2542 32.6065 38.7573 33.4439 37.307C34.2812 35.8567 33.7843 34.0022 32.334 33.1649L34.6683 34.5125C36.1185 35.3499 37.973 34.8529 38.8103 33.4027C39.6477 31.9524 39.1508 30.0978 37.7005 29.2605L39.2567 30.1589C40.7069 30.9963 42.5615 30.4994 43.3988 29.049C44.2361 27.5987 43.7392 25.7442 42.2888 24.9069L40.7327 24.0085C42.183 24.8458 44.0375 24.3489 44.8748 22.8985C45.7121 21.4483 45.2152 19.5938 43.765 18.7564Z" fill="#16324C"/>
<path d="M23.9378 27.9418C22.4875 27.1044 20.633 27.6013 19.7957 29.0516L20.6941 27.4955C21.5315 26.0452 21.0346 24.1908 19.5843 23.3534C18.134 22.5161 16.2796 23.013 15.4422 24.4633L16.3407 22.9071C17.178 21.4568 16.6811 19.6023 15.2308 18.765C13.7806 17.9276 11.9261 18.4246 11.0888 19.8748L10.1903 21.4309C11.0276 19.9807 10.5307 18.1262 9.0804 17.2888C7.63014 16.4515 5.77567 16.9484 4.93833 18.3987L1.68149 24.0397C0.844147 25.49 1.34107 27.3446 2.79133 28.1818C4.24159 29.0192 6.09614 28.5222 6.9334 27.0719C6.09605 28.5222 6.59298 30.3767 8.04324 31.214C9.4935 32.0513 11.3481 31.5544 12.1853 30.104C11.348 31.5543 11.8449 33.4089 13.2952 34.2461C14.7455 35.0835 16.6 34.5866 17.4373 33.1362C16.6 34.5865 17.0969 36.441 18.5471 37.2783C19.9974 38.1156 21.852 37.6187 22.6892 36.1684L25.0476 32.0835C25.885 30.6336 25.3881 28.779 23.9378 27.9418Z" fill="#16324C"/>
</svg>
