<svg width="46" height="32" viewBox="0 0 46 32" fill="none" xmlns="http://www.w3.org/2000/svg">
<path d="M30.4883 0C27.4204 0 24.4214 0.909741 21.8705 2.61418C19.3196 4.31862 17.3315 6.74121 16.1574 9.57558C14.9834 12.41 14.6762 15.5288 15.2747 18.5378C15.8733 21.5468 17.3506 24.3107 19.5199 26.48C21.6893 28.6493 24.4532 30.1267 27.4622 30.7252C30.4711 31.3237 33.59 31.0165 36.4244 29.8425C39.2588 28.6685 41.6813 26.6803 43.3858 24.1294C45.0902 21.5786 46 18.5795 46 15.5116C45.9943 11.3994 44.3582 7.45727 41.4505 4.5495C38.5427 1.64173 34.6005 0.0056603 30.4883 0ZM35.3665 20.3898C35.0656 20.6903 34.6577 20.8591 34.2325 20.8591C33.8073 20.8591 33.3994 20.6903 33.0986 20.3898L29.4186 16.6456C29.1175 16.3449 28.9482 15.9371 28.9479 15.5116V9.09302C28.9479 8.66744 29.1169 8.2593 29.4179 7.95836C29.7188 7.65743 30.1269 7.48837 30.5525 7.48837C30.9781 7.48837 31.3862 7.65743 31.6872 7.95836C31.9881 8.2593 32.1572 8.66744 32.1572 9.09302V14.8484L35.4307 18.1219C35.7228 18.4312 35.8801 18.8438 35.8681 19.2691C35.8561 19.6944 35.6756 20.0975 35.3665 20.3898Z" fill="#16324C"/>
<path d="M11.2326 17.116H1.60465C1.17907 17.116 0.770922 16.947 0.469992 16.646C0.169061 16.3451 0 15.937 0 15.5114C0 15.0858 0.169061 14.6777 0.469992 14.3767C0.770922 14.0758 1.17907 13.9067 1.60465 13.9067H11.2326C11.6581 13.9067 12.0663 14.0758 12.3672 14.3767C12.6682 14.6777 12.8372 15.0858 12.8372 15.5114C12.8372 15.937 12.6682 16.3451 12.3672 16.646C12.0663 16.947 11.6581 17.116 11.2326 17.116Z" fill="#16324C"/>
<path d="M13.3721 8.55818H8.02323C7.59765 8.55818 7.1895 8.38912 6.88857 8.08819C6.58764 7.78726 6.41858 7.37911 6.41858 6.95353C6.41858 6.52795 6.58764 6.1198 6.88857 5.81887C7.1895 5.51794 7.59765 5.34888 8.02323 5.34888H13.3721C13.7977 5.34888 14.2058 5.51794 14.5067 5.81887C14.8077 6.1198 14.9767 6.52795 14.9767 6.95353C14.9767 7.37911 14.8077 7.78726 14.5067 8.08819C14.2058 8.38912 13.7977 8.55818 13.3721 8.55818Z" fill="#16324C"/>
<path d="M13.3721 25.6744H8.02323C7.59765 25.6744 7.1895 25.5053 6.88857 25.2044C6.58764 24.9035 6.41858 24.4953 6.41858 24.0697C6.41858 23.6442 6.58764 23.236 6.88857 22.9351C7.1895 22.6341 7.59765 22.4651 8.02323 22.4651H13.3721C13.7977 22.4651 14.2058 22.6341 14.5067 22.9351C14.8077 23.236 14.9767 23.6442 14.9767 24.0697C14.9767 24.4953 14.8077 24.9035 14.5067 25.2044C14.2058 25.5053 13.7977 25.6744 13.3721 25.6744Z" fill="#16324C"/>
</svg>
