<svg width="46" height="46" viewBox="0 0 46 46" fill="none" xmlns="http://www.w3.org/2000/svg">
<path d="M0.949199 8.40902C3.23599 9.18113 5.05757 11.0014 5.83149 13.2872C5.99932 13.8402 6.51331 14.2426 7.12119 14.2426C7.72665 14.2426 8.23885 13.8431 8.40893 13.2934C9.18104 11.0067 11.0012 9.18518 13.287 8.41108C13.8401 8.24325 14.2425 7.72926 14.2425 7.12138C14.2425 6.51592 13.843 6.00372 13.2933 5.83364C11.0066 5.06153 9.18509 3.24138 8.41099 0.955578C8.24316 0.40241 7.72917 0 7.12128 0C6.51583 0 6.00363 0.399445 5.83364 0.949199C5.06162 3.23581 3.24138 5.05739 0.955488 5.83149C0.40241 5.99932 0 6.51331 0 7.12129C0 7.72674 0.399535 8.23894 0.949199 8.40902Z" fill="#16324C"/>
<path d="M45.0507 37.5909C42.7639 36.8188 40.9424 34.9985 40.1684 32.7127C40.0006 32.1597 39.4866 31.7573 38.8787 31.7573C38.2733 31.7573 37.7611 32.1568 37.591 32.7065C36.8189 34.9932 34.9987 36.8147 32.7129 37.5888C32.1599 37.7566 31.7574 38.2706 31.7574 38.8785C31.7574 39.484 32.1569 39.9962 32.7066 40.1662C34.9933 40.9384 36.8148 42.7585 37.5889 45.0443C37.7568 45.5974 38.2708 45.9998 38.8786 45.9998C39.4841 45.9998 39.9963 45.6004 40.1663 45.0506C40.9383 42.764 42.7585 40.9424 45.0444 40.1683C45.5975 40.0005 45.9999 39.4865 45.9999 38.8786C45.9999 38.2732 45.6004 37.761 45.0507 37.5909Z" fill="#16324C"/>
<path d="M27.757 30.3825C27.757 30.3825 26.8502 30.0799 25.5906 29.6606C21.2461 28.2124 17.7875 24.7539 16.3394 20.4096C15.92 19.1497 15.6174 18.2429 15.6174 18.2429C15.4339 17.6928 14.9189 17.3218 14.339 17.3218C13.759 17.3218 13.2441 17.6929 13.0606 18.243C13.0606 18.243 12.7582 19.1498 12.3388 20.4093C10.8906 24.7538 7.43215 28.2124 3.08775 29.6605C1.82796 30.08 0.921168 30.3825 0.921168 30.3825C0.371055 30.566 0 31.081 0 31.6609C0 32.2409 0.371145 32.7558 0.921258 32.9393C0.921258 32.9393 1.82805 33.2417 3.08739 33.6611C7.43206 35.1093 10.8906 38.5678 12.3387 42.9121C12.7582 44.1719 13.0606 45.0786 13.0606 45.0786C13.2441 45.6288 13.7589 45.9999 14.339 45.9999H14.3391C14.919 45.9999 15.434 45.6289 15.6174 45.0787C15.6174 45.0787 15.92 44.1719 16.3394 42.9124C17.7876 38.5679 21.2461 35.1093 25.5904 33.6612C26.8502 33.2417 27.757 32.9393 27.757 32.9393C28.3071 32.7558 28.6782 32.241 28.6782 31.6609C28.6782 31.0809 28.3071 30.566 27.757 30.3825Z" fill="#16324C"/>
<path d="M34.5483 22.9034C35.1542 22.9034 35.6666 22.5034 35.8363 21.953C37.2862 17.6335 40.7245 14.1939 45.0433 12.742C45.597 12.5746 46 12.0603 46 11.4518C46 10.8459 45.5999 10.3335 45.0496 10.1638C40.73 8.71385 37.2904 5.27562 35.8385 0.956836C35.671 0.403039 35.1568 0 34.5483 0C33.9423 0 33.4299 0.400074 33.2602 0.950367C31.8103 5.26996 28.372 8.70963 24.0532 10.1615C23.4995 10.3289 23.0965 10.8432 23.0965 11.4517C23.0965 12.0576 23.4966 12.57 24.0469 12.7398C28.3662 14.1896 31.8058 17.6275 33.2577 21.9459C33.425 22.5001 33.9395 22.9034 34.5483 22.9034Z" fill="#16324C"/>
</svg>
