<svg width="100" height="100" viewBox="0 0 100 100" fill="none" xmlns="http://www.w3.org/2000/svg">
<g clip-path="url(#clip0_31_420)">
<path d="M14.5981 64.0776C14.032 65.2067 14.2525 66.5716 15.1443 67.4643L15.8607 68.1807C17.9306 65.7278 20.343 63.0659 23.2689 60.1408C23.4756 59.934 23.6885 59.8341 23.896 59.6434L19.2871 55.0337C16.6077 59.8799 15.0452 63.191 14.5981 64.0776Z" fill="#1884B2"/>
<path d="M39.8415 76.7136C36.9087 79.6463 34.2537 82.0633 31.8146 84.1347L32.785 85.1051C33.6853 86.0054 35.0632 86.2221 36.1961 85.6392C37.7136 84.8572 40.1001 83.7341 45.166 80.9128L40.3397 76.0864C40.1489 76.2947 40.049 76.5068 39.8415 76.7136Z" fill="#1884B2"/>
<path d="M38.2797 61.7068C36.1625 59.5896 30.2086 61.4878 27.4116 64.284C18.0549 73.6407 13.829 80.2744 11.9316 84.1913C11.3876 85.3136 11.6142 86.6572 12.4962 87.5391C13.3797 88.4234 14.7255 88.6477 15.8485 88.1037C19.6777 86.2444 26.2306 82.0383 35.6987 72.571C38.7741 69.4941 40.2916 63.7194 38.282 61.7091L38.2797 61.7068Z" fill="#1884B2"/>
<path d="M9.14461 39.0058L0.858334 47.2921C-0.0785548 48.229 -0.270815 49.6793 0.392942 50.8283C1.04068 51.9621 2.39718 52.5396 3.68807 52.194C8.16653 50.9931 12.1071 50.4858 14.7606 51.1663C18.5356 44.4547 22.5922 38.2765 26.8883 32.6643C24.4034 31.0713 16.1919 31.9586 9.14461 39.0058Z" fill="#1884B2"/>
<path d="M49.5888 99.6857C50.7171 100.256 52.0836 100.036 52.977 99.1417L61.264 90.8555C67.6796 84.4384 68.8087 76.159 67.353 73.5337C61.0939 78.2509 54.7531 82.2342 48.8373 85.5691C49.2454 87.8739 48.9738 90.1101 48.0087 96.6408C47.8203 97.905 48.4733 99.128 49.5888 99.6857Z" fill="#1884B2"/>
<path d="M58.1642 29.3882C54.7378 32.8153 54.7378 38.3901 58.1642 41.8173C61.5913 45.2444 67.1669 45.2444 70.594 41.8173C74.0211 38.3901 74.0211 32.8153 70.594 29.3882C67.1669 25.9611 61.5913 25.9611 58.1642 29.3882Z" fill="#1884B2"/>
<path d="M99.8275 2.8582C99.7222 1.40938 98.5687 0.264211 97.1244 0.155874C89.9291 -0.385812 82.7621 0.499197 75.7369 2.64763C76.2657 7.47398 78.762 12.6971 83.0238 16.9588C87.3367 21.271 92.7017 23.7665 97.6142 24.2335C99.5063 17.6028 100.404 10.5013 99.8275 2.8582Z" fill="#1884B2"/>
<path d="M78.881 21.1024C74.0058 16.2272 71.0288 10.3801 70.0736 4.68701C52.481 11.9021 35.6399 27.6583 22.332 49.7927L28.9436 56.4044C33.461 54.5702 38.945 54.0858 42.4232 57.5633C45.906 61.0468 45.4124 66.5285 43.5791 71.0398L50.4081 77.8689C67.4384 67.6051 87.2657 51.4346 95.6969 29.9205C89.865 29.0393 83.8355 26.0569 78.881 21.1024ZM74.7367 45.9612C69.0261 51.6718 59.7328 51.6718 54.0214 45.9612C48.31 40.2499 48.31 30.9558 54.0214 25.2452C59.7328 19.5346 69.0261 19.5346 74.7367 25.2452C80.4481 30.9565 80.4481 40.2499 74.7367 45.9612Z" fill="#1884B2"/>
</g>
<defs>
<clipPath id="clip0_31_420">
<rect width="100" height="100" fill="white"/>
</clipPath>
</defs>
</svg>
