<svg width="42" height="42" viewBox="0 0 42 42" fill="none" xmlns="http://www.w3.org/2000/svg">
<path d="M39.2293 16.3697C38.9078 15.4128 38.1045 14.7264 37.1293 14.5768L27.6964 13.1291L23.4688 4.15946C23.0278 3.21315 22.1183 2.62646 21.0972 2.62646C20.076 2.62646 19.1665 3.21447 18.7255 4.15684L14.4966 13.1304L5.06365 14.5781C4.08978 14.7277 3.28522 15.4155 2.96365 16.371C2.6329 17.3567 2.87309 18.429 3.58972 19.1666L10.4541 26.2305L8.83184 36.2212C8.66122 37.2738 9.08647 38.3002 9.94353 38.9027C10.3898 39.2163 10.9069 39.3752 11.4267 39.3752C11.8558 39.3752 12.285 39.2662 12.6801 39.0483L21.0748 34.3653L29.5155 39.0483C30.387 39.5327 31.4357 39.4762 32.2508 38.9027C33.1078 38.3015 33.5331 37.2738 33.3625 36.2225L31.7402 26.2318L38.6046 19.1679C39.3212 18.4303 39.5614 17.3593 39.2307 16.3723L39.2293 16.3697Z" fill="#16324C"/>
</svg>
