<svg width="28" height="28" viewBox="0 0 28 28" fill="none" xmlns="http://www.w3.org/2000/svg">
<g clip-path="url(#clip0_35_596)">
<path d="M14 28C21.732 28 28 21.732 28 14C28 6.26801 21.732 0 14 0C6.26801 0 0 6.26801 0 14C0 21.732 6.26801 28 14 28Z" fill="#1884B2"/>
<path d="M17.6965 11.056C17.6965 11.6 17.5792 12.0693 17.3445 12.464C17.1098 12.848 16.8005 13.168 16.4165 13.424C16.0432 13.6693 15.6272 13.856 15.1685 13.984V14.032C16.0858 14.1387 16.7898 14.416 17.2805 14.864C17.7818 15.3013 18.0325 15.9253 18.0325 16.736C18.0325 17.3547 17.8618 17.9253 17.5205 18.448C17.1898 18.9707 16.6725 19.3867 15.9685 19.696C15.2752 20.0053 14.3738 20.16 13.2645 20.16C12.5285 20.16 11.8992 20.1067 11.3765 20C10.8538 19.8827 10.3472 19.728 9.8565 19.536V16.976C10.3578 17.232 10.8698 17.424 11.3925 17.552C11.9152 17.6693 12.3898 17.728 12.8165 17.728C13.5738 17.728 14.0858 17.6213 14.3525 17.408C14.6298 17.1947 14.7685 16.9067 14.7685 16.544C14.7685 16.288 14.6992 16.0693 14.5605 15.888C14.4325 15.696 14.1925 15.552 13.8405 15.456C13.4992 15.36 12.9978 15.312 12.3365 15.312H11.6325V12.992H12.3525C12.9392 12.992 13.4032 12.944 13.7445 12.848C14.0858 12.7413 14.3312 12.5973 14.4805 12.416C14.6298 12.2347 14.7045 12.0267 14.7045 11.792C14.7045 11.4827 14.5872 11.2587 14.3525 11.12C14.1178 10.9707 13.8085 10.896 13.4245 10.896C13.0832 10.896 12.7578 10.944 12.4485 11.04C12.1498 11.136 11.8885 11.2427 11.6645 11.36C11.4405 11.4667 11.2698 11.5573 11.1525 11.632L9.8725 9.568C10.3418 9.248 10.8805 8.976 11.4885 8.752C12.1072 8.528 12.9125 8.416 13.9045 8.416C15.0778 8.416 16.0005 8.65067 16.6725 9.12C17.3552 9.58933 17.6965 10.2347 17.6965 11.056Z" fill="white"/>
</g>
<defs>
<clipPath id="clip0_35_596">
<rect width="28" height="28" fill="white"/>
</clipPath>
</defs>
</svg>
