<svg width="100" height="100" viewBox="0 0 100 100" fill="none" xmlns="http://www.w3.org/2000/svg">
<path d="M23.7297 40.9731H9.43241C8.12648 40.9764 6.87516 41.4975 5.95299 42.4222C5.03082 43.3469 4.51313 44.5996 4.51349 45.9056V92.365C4.51313 93.671 5.03082 94.9237 5.95299 95.8484C6.87516 96.7731 8.12648 97.2943 9.43241 97.2975H23.7297C25.037 97.2946 26.2899 96.774 27.2143 95.8496C28.1387 94.9252 28.6593 93.6723 28.6621 92.365V45.9056C28.6593 44.5983 28.1387 43.3454 27.2143 42.421C26.2899 41.4966 25.037 40.976 23.7297 40.9731Z" fill="#1884B2"/>
<path d="M93.3649 57.1486C93.3645 54.9192 92.4801 52.7809 90.9054 51.2027C90.7714 51.0572 90.6268 50.9217 90.473 50.7973C92.2168 50.0583 93.6519 48.7396 94.5354 47.0643C95.4189 45.389 95.6966 43.46 95.3214 41.6035C94.9463 39.7471 93.9415 38.0772 92.4769 36.8763C91.0122 35.6755 89.1778 35.0174 87.2838 35.0135H57.9595C58.1216 34.7297 58.2703 34.4729 58.4054 34.2162C59.2493 32.8539 59.9211 31.3923 60.4054 29.8648C61.0518 27.7474 61.4465 25.5611 61.5811 23.3513C61.7683 20.1586 61.3147 16.9607 60.2471 13.946C59.1795 10.9313 57.5196 8.16065 55.3649 5.79725C54.5531 4.8752 53.5641 4.12601 52.4566 3.59435C51.3492 3.06268 50.1461 2.75943 48.9189 2.70266C47.2426 2.63829 45.6039 3.2096 44.3309 4.30216C43.0579 5.39472 42.2447 6.92786 42.0541 8.59455C42.0428 8.65695 42.0383 8.72037 42.0405 8.78374V20.6216L34.2027 40.4864C33.5609 42.102 32.5951 43.569 31.3649 44.7973V90.581C33.2996 91.1139 35.268 91.5157 37.2568 91.7837C37.9959 91.8826 38.7408 91.9323 39.4865 91.9324H79.2297C81.1939 91.9298 83.0779 91.1529 84.473 89.7702C85.1596 89.0835 85.704 88.2681 86.075 87.3707C86.446 86.4733 86.6363 85.5116 86.6351 84.5405C86.6399 82.7484 85.9858 81.017 84.7973 79.6756C86.3626 79.3466 87.8032 78.5821 88.953 77.4701C90.1028 76.3582 90.9152 74.9441 91.2964 73.3907C91.6777 71.8372 91.6125 70.2077 91.1082 68.6898C90.6039 67.1718 89.681 65.8272 88.446 64.8108C89.9126 64.1376 91.1556 63.058 92.0274 61.7C92.8992 60.3419 93.3634 58.7624 93.3649 57.1486Z" fill="#1884B2"/>
</svg>
