<svg width="28" height="28" viewBox="0 0 28 28" fill="none" xmlns="http://www.w3.org/2000/svg">
<g clip-path="url(#clip0_35_589)">
<path d="M14 28C21.732 28 28 21.732 28 14C28 6.26801 21.732 0 14 0C6.26801 0 0 6.26801 0 14C0 21.732 6.26801 28 14 28Z" fill="#1884B2"/>
<path d="M18.0805 20H9.7925V17.968L12.5765 15.152C13.1525 14.544 13.6005 14.0587 13.9205 13.696C14.2512 13.3333 14.4805 13.024 14.6085 12.768C14.7365 12.512 14.8005 12.2453 14.8005 11.968C14.8005 11.6267 14.6885 11.3813 14.4645 11.232C14.2512 11.0827 13.9952 11.008 13.6965 11.008C13.3338 11.008 12.9712 11.1093 12.6085 11.312C12.2458 11.5147 11.8298 11.8187 11.3605 12.224L9.6645 10.24C10.0058 9.93067 10.3685 9.63733 10.7525 9.36C11.1472 9.08267 11.6058 8.85867 12.1285 8.688C12.6512 8.50667 13.2912 8.416 14.0485 8.416C14.8272 8.416 15.4992 8.55467 16.0645 8.832C16.6298 9.09867 17.0672 9.46667 17.3765 9.936C17.6965 10.4053 17.8565 10.9387 17.8565 11.536C17.8565 12.1973 17.7338 12.7893 17.4885 13.312C17.2538 13.824 16.8912 14.3413 16.4005 14.864C15.9205 15.376 15.3178 15.9627 14.5925 16.624L13.7605 17.376V17.456H18.0805V20Z" fill="white"/>
</g>
<defs>
<clipPath id="clip0_35_589">
<rect width="28" height="28" fill="white"/>
</clipPath>
</defs>
</svg>
